<svg width="45" height="63" viewBox="0 0 45 63" fill="none" xmlns="http://www.w3.org/2000/svg">
<path d="M23.0915 13.209L27.5708 15.8281L18.3576 31.5846L27.3952 36.8691L25.1458 40.7161L11.6289 32.8124L23.0915 13.209Z" fill="black"/>
<path d="M35.8738 40.5294L36.8704 45.6216L18.9579 49.1276L20.9688 59.4018L16.5955 60.2578L13.5879 44.8913L35.8738 40.5294Z" fill="black"/>
<path fill-rule="evenodd" clip-rule="evenodd" d="M7.86863 21.9631C12.2144 21.9631 15.7373 18.4402 15.7373 14.0945C15.7373 9.74874 12.2144 6.22583 7.86863 6.22583C3.52291 6.22583 0 9.74874 0 14.0945C0 18.4402 3.52291 21.9631 7.86863 21.9631ZM7.86947 16.9868C9.46685 16.9868 10.7618 15.6919 10.7618 14.0945C10.7618 12.4971 9.46685 11.2022 7.86947 11.2022C6.27209 11.2022 4.97716 12.4971 4.97716 14.0945C4.97716 15.6919 6.27209 16.9868 7.86947 16.9868Z" fill="black"/>
<path fill-rule="evenodd" clip-rule="evenodd" d="M36.2026 15.7373C40.5483 15.7373 44.0712 12.2144 44.0712 7.86863C44.0712 3.52291 40.5483 0 36.2026 0C31.8569 0 28.334 3.52291 28.334 7.86863C28.334 12.2144 31.8569 15.7373 36.2026 15.7373ZM36.348 10.7611C37.9454 10.7611 39.2403 9.46616 39.2403 7.86878C39.2403 6.2714 37.9454 4.97647 36.348 4.97647C34.7506 4.97647 33.4557 6.2714 33.4557 7.86878C33.4557 9.46616 34.7506 10.7611 36.348 10.7611Z" fill="black"/>
</svg>
